<svg width="1620" height="1722" viewBox="0 0 1620 1722" fill="none" xmlns="http://www.w3.org/2000/svg">
<g clip-path="url(#clip0_101_2)">
<path d="M765.202 23.6858C786.944 8.97827 812.842 -2.53202 842.897 -10.845C872.951 -19.158 897.251 -23.3145 915.795 -23.3145C934.34 -23.3145 946.17 -23.3145 951.285 -23.3145V-13.7226C921.231 -12.4437 893.094 -6.36878 866.877 4.50201C840.659 14.7334 818.917 26.8831 801.652 40.9513C785.026 54.3799 768.719 72.6045 752.733 95.6251C736.746 118.006 724.277 137.19 715.324 153.176C707.012 169.163 697.1 189.626 685.59 214.565L418.935 797.752C395.275 849.548 383.445 882.481 383.445 896.549H374.812L105.28 281.708C96.3272 261.245 83.8577 246.218 67.8712 236.626C52.5242 226.395 36.8574 221.279 20.8709 221.279H13.1974V211.687H229.015V221.279H220.382C201.199 221.279 188.409 230.231 182.015 248.136C180.736 251.973 180.096 256.449 180.096 261.565C180.096 266.681 181.695 273.075 184.892 280.749L385.363 783.364L623.242 214.565C660.97 125.68 708.29 62.0535 765.202 23.6858ZM1619.62 1046.18C1592.77 1053.22 1568.79 1056.73 1547.68 1056.73C1527.22 1056.73 1509 1055.45 1493.01 1052.9C1477.02 1050.34 1459.76 1045.22 1441.21 1037.55C1423.31 1030.52 1406.36 1022.2 1390.38 1012.61C1374.39 1003.02 1358.4 991.189 1342.42 977.121C1313 953.461 1286.14 927.882 1261.85 900.386C1238.19 872.889 1192.14 821.412 1123.72 745.956C1055.3 669.86 1009.9 619.343 987.517 594.404C965.136 569.465 947.871 556.356 935.721 555.077V545.485C972.81 545.485 997.429 544.846 1009.58 543.567C1022.37 541.648 1035.8 538.771 1049.86 534.934C1063.93 530.458 1075.76 524.703 1085.35 517.669C1123.08 493.369 1141.95 453.083 1141.95 396.811C1141.95 350.13 1131.4 312.722 1110.29 284.586C1089.83 256.449 1060.74 242.061 1023.01 241.422H904.068V813.099C904.068 829.086 909.823 843.154 921.333 855.304C933.483 867.453 948.19 873.528 965.456 873.528H976.966L977.925 883.12H767.863V873.528H780.332C796.319 873.528 810.387 867.773 822.536 856.263C834.686 844.753 841.081 830.684 841.72 814.058V281.708C841.081 265.082 834.686 251.014 822.536 239.504C811.026 227.354 796.958 221.279 780.332 221.279H767.863V211.687H1026.84C1083.12 211.687 1128.2 227.674 1162.09 259.647C1196.62 290.98 1213.89 332.865 1213.89 385.3C1213.89 437.097 1198.22 481.859 1166.89 519.587C1135.55 556.676 1097.18 575.22 1051.78 575.22C1051.78 575.22 1051.46 575.22 1050.82 575.22C1072.57 598.241 1097.18 625.098 1124.68 655.792C1235.31 777.929 1306.29 854.664 1337.62 885.998C1368.95 917.331 1396.45 942.91 1420.11 962.733C1444.41 983.196 1465.83 998.223 1484.38 1007.81C1522.11 1028.28 1559.51 1038.51 1596.6 1038.51C1604.28 1038.51 1611.95 1037.87 1619.62 1036.59V1046.18Z" fill="white"/>
<path d="M227.294 1247.01C220.406 1254.28 212.562 1259.64 203.762 1263.08C241.26 1268.44 269.766 1281.83 289.28 1303.26C308.794 1324.3 318.551 1350.13 318.551 1380.74C318.551 1417.85 303.629 1447.89 273.783 1470.85C243.938 1493.81 204.718 1505.29 156.124 1505.29C107.53 1505.29 69.4578 1493.42 41.9082 1469.7C14.3587 1445.59 0.583958 1411.73 0.583958 1368.11C0.583958 1365.82 0.583958 1363.52 0.583958 1361.22L6.89739 1360.08C14.55 1417.09 38.2732 1454.01 78.067 1470.85V1136.81C77.3017 1126.48 73.2841 1118.06 66.0141 1111.56C59.1267 1104.67 50.7088 1101.23 40.7603 1101.23H33.873V1095.49H130.296C166.264 1095.49 194.961 1103.71 216.389 1120.17C238.199 1136.62 249.104 1158.24 249.104 1185.02C249.104 1211.42 241.834 1232.09 227.294 1247.01ZM115.374 1113.85V1481.18C128.001 1483.09 142.541 1484.05 158.994 1484.05C195.726 1484.05 224.233 1474.29 244.512 1454.78C265.174 1434.88 275.505 1409.24 275.505 1377.87C275.505 1361.03 272.253 1346.11 265.748 1333.1C259.626 1320.09 251.782 1309.95 242.216 1302.68C216.962 1283.17 181.378 1273.41 135.462 1273.41C135.079 1273.41 134.888 1273.41 134.888 1273.41L134.314 1268.24C134.697 1268.24 134.888 1268.24 134.888 1268.24C154.402 1268.24 171.047 1261.93 184.821 1249.3C198.979 1236.29 206.057 1216.4 206.057 1189.61C206.057 1139.11 178.317 1113.85 122.835 1113.85H115.374ZM751.739 1491.51H756.33V1497.25H627.192V1491.51H632.358C640.393 1491.51 646.324 1489.02 650.15 1484.05C654.359 1478.69 656.463 1473.72 656.463 1469.13C656.463 1464.53 655.698 1459.94 654.168 1455.35L617.435 1357.78H462.469L424.014 1455.93C422.484 1460.52 421.719 1465.11 421.719 1469.7C421.719 1473.91 423.632 1478.69 427.458 1484.05C431.667 1489.02 437.789 1491.51 445.824 1491.51H450.99V1497.25H335.626V1491.51H340.792C350.358 1491.51 359.732 1488.45 368.915 1482.33C378.098 1476.21 385.56 1467.21 391.299 1455.35L521.012 1146.57C535.169 1115.57 542.248 1095.87 542.248 1087.45H547.413L701.231 1455.35C706.588 1467.21 713.858 1476.21 723.041 1482.33C732.225 1488.45 741.79 1491.51 751.739 1491.51ZM469.356 1340.56H610.548L541.674 1156.32L469.356 1340.56Z" fill="white"/>
<path d="M1199.84 1101.23C1190.28 1101.23 1182.05 1104.67 1175.16 1111.56C1168.27 1118.06 1164.64 1126.1 1164.26 1135.66V1431.82C1164.26 1454.01 1165.6 1475.06 1168.27 1494.95L1169.42 1505.29H1164.26L851.455 1171.25V1457.07C851.455 1466.64 854.899 1474.87 861.786 1481.75C868.674 1488.26 876.9 1491.51 886.466 1491.51H897.371V1497.25H779.138V1491.51H790.043C799.609 1491.51 807.835 1488.26 814.723 1481.75C821.61 1474.87 825.054 1466.45 825.054 1456.5V1158.62C825.054 1135.28 823.714 1114.43 821.036 1096.06L819.888 1086.88H825.628L1138.43 1420.91V1136.24C1138.05 1126.29 1134.41 1118.06 1127.52 1111.56C1120.64 1104.67 1112.41 1101.23 1102.84 1101.23H1091.94V1095.49H1210.17V1101.23H1199.84Z" fill="white"/>
<path d="M1385.3 1491.51H1392.76V1497.25H1267.07V1491.51H1274.53C1284.48 1491.51 1292.89 1488.07 1299.78 1481.18C1307.05 1473.91 1310.88 1465.3 1311.26 1455.35V1136.81C1310.88 1126.86 1307.05 1118.44 1299.78 1111.56C1292.89 1104.67 1284.48 1101.23 1274.53 1101.23H1267.07V1095.49H1392.76V1101.23H1385.3C1375.35 1101.23 1366.74 1104.67 1359.47 1111.56C1352.59 1118.44 1348.95 1126.86 1348.57 1136.81V1455.35C1348.57 1465.3 1352.2 1473.91 1359.47 1481.18C1366.74 1488.07 1375.35 1491.51 1385.3 1491.51ZM1616.03 1497.25H1591.35C1552.32 1497.25 1523.62 1486.34 1505.26 1464.53L1366.93 1297.52L1502.39 1127.63C1505.45 1123.8 1506.98 1120.36 1506.98 1117.3C1506.98 1114.24 1506.4 1111.56 1505.26 1109.26C1502.19 1103.52 1496.65 1100.65 1488.61 1100.65H1482.87V1095.49H1603.97V1100.65H1601.68C1576.42 1100.65 1555.76 1109.64 1539.69 1127.63L1404.81 1283.74L1561.5 1467.98C1576.81 1483.28 1594.98 1491.13 1616.03 1491.51V1497.25Z" fill="white"/>
<path d="M868 993.61L837.09 1003.86L813.2 973.56L789.32 1003.84L758.87 993.58L765.01 1056.69H861.33L868 993.61ZM794.24 1020.37L813.24 996.37L832.18 1020.37L851.72 1013.89L848.72 1042.61H777.84L775.05 1013.92L794.24 1020.37Z" fill="white"/>
<path d="M862.21 1065.15H764.45V1079.25H862.21V1065.15Z" fill="white"/>
<path d="M1201.66 1026.38L879.44 1026.37L875.33 1060.97L876.36 1079.3L1201.66 1079.37" fill="white"/>
<path d="M7 1026.4L747.56 1026.37L751.66 1060.91L750.64 1079.2L7 1079.37V1026.4Z" fill="white"/>
<path d="M1487.67 1078.46C1487.67 1078.46 1441.67 1076.46 1367.67 1026.37H1201.67V1079.37L1487.67 1078.46Z" fill="white"/>
<path d="M1485.67 1026.37C1486.67 1026.37 1543.38 1066.31 1619.67 1055.15V1026.37H1485.67Z" fill="white"/>
</g>
<defs>
<clipPath id="clip0_101_2">
<rect width="1619.67" height="1721.37" fill="white"/>
</clipPath>
</defs>
</svg>
